# xmcd
#
# Track frame offsets:
#	150
#	13055
#	26915
#	42428
#	55860
#	71522
#	86303
#	101790
#	115638
#	129617
#	144108
#	159518
#	173008
#	187310
#
# Disc length: 2705 seconds
#
# Revision: 0
# Processed by: cddbd v1.5.1PL0 Copyright (c) Steve Scherf et al.
# Submitted via: dBpowerAMP V4.0
#
DISCID=bb0a8f0e
DTITLE=Linda Feller - Jeder Tag kann ein Anfang sein
DYEAR=2000
DGENRE=Country
TTITLE0=Wunderbar
TTITLE1=Leben ist für mich Rock'n'Roll
TTITLE2=Tu's doch
TTITLE3=Männer wollen nur das Eine
TTITLE4=Frag mich nicht (mein Tagebuch)
TTITLE5=Das imponiert mir nicht
TTITLE6=Und dann steht sie wieder im Rampenlicht
TTITLE7=Könntet ihr noch Kinder kriegen
TTITLE8=Geh nicht vorbei
TTITLE9=Komm und red mit mir
TTITLE10=Feuer und Eis
TTITLE11=Er ist wie er ist
TTITLE12=Frauen sind halt keine Männer
TTITLE13=Jeder Tag kann ein Anfang sein
EXTD=
EXTT0=
EXTT1=
EXTT2=
EXTT3=
EXTT4=
EXTT5=
EXTT6=
EXTT7=
EXTT8=
EXTT9=
EXTT10=
EXTT11=
EXTT12=
EXTT13=
PLAYORDER=
